<svg width="90" height="90" viewBox="0 0 90 90" fill="none" xmlns="http://www.w3.org/2000/svg">
<path d="M2.27539 62.7373C3.53162 62.7375 4.5498 63.7564 4.5498 65.0127V75.0752C4.54991 80.5753 9.02529 85.0498 14.5254 85.0498H24.5879C25.8441 85.05 26.8623 86.0689 26.8623 87.3252C26.8622 88.5814 25.8441 89.5994 24.5879 89.5996H14.5254C6.51641 89.5996 0.000106746 83.0842 0 75.0752V65.0127C0 63.7563 1.01898 62.7373 2.27539 62.7373ZM87.3252 62.7373C88.5815 62.7374 89.5996 63.7563 89.5996 65.0127V75.0752C89.5995 83.0841 83.0841 89.5995 75.0752 89.5996H65.0127C63.7563 89.5996 62.7374 88.5815 62.7373 87.3252C62.7373 86.0688 63.7563 85.0498 65.0127 85.0498H75.0752C80.5752 85.0497 85.0497 80.5752 85.0498 75.0752V65.0127C85.0498 63.7563 86.0688 62.7373 87.3252 62.7373ZM57.293 62.752C58.2515 61.867 59.7455 61.9264 60.6309 62.8848C61.516 63.8431 61.4571 65.3373 60.499 66.2227C56.2129 70.1816 50.637 72.3622 44.7988 72.3623C38.9606 72.3623 33.3848 70.1817 29.0986 66.2227C28.1404 65.3374 28.0808 63.8432 28.9658 62.8848C29.8512 61.9264 31.346 61.8667 32.3047 62.752C35.7152 65.9023 40.1525 67.6377 44.7988 67.6377C49.4451 67.6376 53.8825 65.9022 57.293 62.752ZM47.1621 31.4121C48.4669 31.4121 49.5254 32.4706 49.5254 33.7754V50.5752C49.5253 53.9042 46.8164 56.6123 43.4873 56.6123H41.5625C40.2577 56.6123 39.2002 55.5548 39.2002 54.25C39.2002 52.9452 40.2577 51.8877 41.5625 51.8877H43.4873C44.211 51.8877 44.7997 51.2988 44.7998 50.5752V33.7754C44.7998 32.4707 45.8575 31.4123 47.1621 31.4121ZM26.5566 31.4121C27.7887 31.4123 28.787 32.4115 28.7871 33.6436V40.3809C28.7871 41.613 27.7887 42.6121 26.5566 42.6123C25.3244 42.6123 24.3252 41.6131 24.3252 40.3809V33.6436C24.3253 32.4114 25.3244 31.4121 26.5566 31.4121ZM63.5684 31.4121C64.8006 31.4121 65.7997 32.4114 65.7998 33.6436V40.3809C65.7998 41.6131 64.8006 42.6123 63.5684 42.6123C62.3363 42.6121 61.3379 41.613 61.3379 40.3809V33.6436C61.338 32.4115 62.3363 31.4123 63.5684 31.4121ZM24.5879 0C25.8441 0.000211889 26.8623 1.01911 26.8623 2.27539C26.8621 3.53149 25.844 4.54959 24.5879 4.5498H14.5254C9.02523 4.5498 4.5498 9.02514 4.5498 14.5254V24.5879C4.54959 25.844 3.53149 26.8621 2.27539 26.8623C1.01911 26.8623 0.000211888 25.8441 0 24.5879V14.5254C0 6.51625 6.51634 0 14.5254 0H24.5879ZM75.0752 0C83.0842 0.000106751 89.5996 6.51632 89.5996 14.5254V24.5879C89.5994 25.8441 88.5814 26.8622 87.3252 26.8623C86.0689 26.8623 85.05 25.8441 85.0498 24.5879V14.5254C85.0498 9.02521 80.5753 4.54991 75.0752 4.5498H65.0127C63.7564 4.5498 62.7375 3.53162 62.7373 2.27539C62.7373 1.01898 63.7563 0 65.0127 0H75.0752Z" fill="currentColor"/>
</svg>
